<svg width="24" height="21" viewBox="0 0 24 21" fill="none" xmlns="http://www.w3.org/2000/svg">
<path d="M23.9928 6.27027C23.9928 6.18919 23.9928 6.10811 23.9928 6.02703C23.9928 2.78378 21.1759 0 17.7175 0C15.1795 0 13.004 1.59459 12 3.59459C10.996 1.56757 8.82053 0 6.28252 0C2.82414 0 0.00723945 2.81081 0.00723945 6.02703C0.00723945 6.10811 0.00723945 6.18919 0.00723945 6.27027C0.00723945 6.27027 -0.355332 10.1081 4.05131 14.2973C6.0594 16.2432 8.29061 18.1081 12 21C15.6815 18.0811 17.9406 16.2432 19.9487 14.2973C24.3553 10.1351 23.9928 6.27027 23.9928 6.27027Z" fill="#0C4E8C"/>
</svg>
