<svg width="128" height="128" viewBox="0 0 128 128" fill="none" xmlns="http://www.w3.org/2000/svg">
<g filter="url(#filter0_d_58_1346)">
<circle cx="64" cy="64" r="30" fill="white"/>
</g>
<path d="M75.9928 59.2703C75.9928 59.1892 75.9928 59.1081 75.9928 59.027C75.9928 55.7838 73.1759 53 69.7175 53C67.1795 53 65.004 54.5946 64 56.5946C62.996 54.5676 60.8205 53 58.2825 53C54.8241 53 52.0072 55.8108 52.0072 59.027C52.0072 59.1081 52.0072 59.1892 52.0072 59.2703C52.0072 59.2703 51.6447 63.1081 56.0513 67.2973C58.0594 69.2432 60.2906 71.1081 64 74C67.6815 71.0811 69.9406 69.2432 71.9487 67.2973C76.3553 63.1351 75.9928 59.2703 75.9928 59.2703Z" fill="#E95262"/>
<defs>
<filter id="filter0_d_58_1346" x="0" y="0" width="128" height="128" filterUnits="userSpaceOnUse" color-interpolation-filters="sRGB">
<feFlood flood-opacity="0" result="BackgroundImageFix"/>
<feColorMatrix in="SourceAlpha" type="matrix" values="0 0 0 0 0 0 0 0 0 0 0 0 0 0 0 0 0 0 127 0" result="hardAlpha"/>
<feOffset/>
<feGaussianBlur stdDeviation="17"/>
<feComposite in2="hardAlpha" operator="out"/>
<feColorMatrix type="matrix" values="0 0 0 0 0.5375 0 0 0 0 0.5375 0 0 0 0 0.5375 0 0 0 0.2 0"/>
<feBlend mode="normal" in2="BackgroundImageFix" result="effect1_dropShadow_58_1346"/>
<feBlend mode="normal" in="SourceGraphic" in2="effect1_dropShadow_58_1346" result="shape"/>
</filter>
</defs>
</svg>
