<svg width="128" height="128" viewBox="0 0 128 128" fill="none" xmlns="http://www.w3.org/2000/svg">
<g filter="url(#filter0_d_58_1340)">
<circle cx="64" cy="64" r="30" fill="white"/>
</g>
<path d="M54.4196 54.4196C54.5523 54.2866 54.7099 54.1811 54.8834 54.1091C55.0569 54.0371 55.2429 54 55.4308 54C55.6187 54 55.8047 54.0371 55.9782 54.1091C56.1517 54.1811 56.3093 54.2866 56.442 54.4196L64.0004 61.9808L71.5587 54.4196C71.6915 54.2868 71.8492 54.1815 72.0227 54.1096C72.1962 54.0377 72.3821 54.0007 72.5699 54.0007C72.7577 54.0007 72.9437 54.0377 73.1172 54.1096C73.2907 54.1815 73.4484 54.2868 73.5811 54.4196C73.7139 54.5524 73.8193 54.71 73.8911 54.8836C73.963 55.0571 74 55.243 74 55.4308C74 55.6186 73.963 55.8046 73.8911 55.9781C73.8193 56.1516 73.7139 56.3092 73.5811 56.442L66.0199 64.0004L73.5811 71.5587C73.7139 71.6915 73.8193 71.8492 73.8911 72.0227C73.963 72.1962 74 72.3821 74 72.5699C74 72.7577 73.963 72.9437 73.8911 73.1172C73.8193 73.2907 73.7139 73.4484 73.5811 73.5811C73.4484 73.7139 73.2907 73.8193 73.1172 73.8911C72.9437 73.963 72.7577 74 72.5699 74C72.3821 74 72.1962 73.963 72.0227 73.8911C71.8492 73.8193 71.6915 73.7139 71.5587 73.5811L64.0004 66.0199L56.442 73.5811C56.3092 73.7139 56.1516 73.8193 55.9781 73.8911C55.8046 73.963 55.6186 74 55.4308 74C55.243 74 55.0571 73.963 54.8836 73.8911C54.71 73.8193 54.5524 73.7139 54.4196 73.5811C54.2868 73.4484 54.1815 73.2907 54.1096 73.1172C54.0377 72.9437 54.0007 72.7577 54.0007 72.5699C54.0007 72.3821 54.0377 72.1962 54.1096 72.0227C54.1815 71.8492 54.2868 71.6915 54.4196 71.5587L61.9808 64.0004L54.4196 56.442C54.2866 56.3093 54.1811 56.1517 54.1091 55.9782C54.0371 55.8047 54 55.6187 54 55.4308C54 55.2429 54.0371 55.0569 54.1091 54.8834C54.1811 54.7099 54.2866 54.5523 54.4196 54.4196Z" fill="#C4C4C4"/>
<defs>
<filter id="filter0_d_58_1340" x="0" y="0" width="128" height="128" filterUnits="userSpaceOnUse" color-interpolation-filters="sRGB">
<feFlood flood-opacity="0" result="BackgroundImageFix"/>
<feColorMatrix in="SourceAlpha" type="matrix" values="0 0 0 0 0 0 0 0 0 0 0 0 0 0 0 0 0 0 127 0" result="hardAlpha"/>
<feOffset/>
<feGaussianBlur stdDeviation="17"/>
<feComposite in2="hardAlpha" operator="out"/>
<feColorMatrix type="matrix" values="0 0 0 0 0.5375 0 0 0 0 0.5375 0 0 0 0 0.5375 0 0 0 0.2 0"/>
<feBlend mode="normal" in2="BackgroundImageFix" result="effect1_dropShadow_58_1340"/>
<feBlend mode="normal" in="SourceGraphic" in2="effect1_dropShadow_58_1340" result="shape"/>
</filter>
</defs>
</svg>
