<svg width="138" height="138" viewBox="0 0 138 138" fill="none" xmlns="http://www.w3.org/2000/svg">
<g filter="url(#filter0_d_58_1343)">
<circle cx="69" cy="69" r="35" fill="#11C4D4"/>
</g>
<path d="M67.1212 57.7486H72.7575L78.9386 51.5552C79.1133 51.3792 79.3211 51.2396 79.55 51.1443C79.779 51.0491 80.0245 51 80.2726 51C80.5206 51 80.7661 51.0491 80.9951 51.1443C81.224 51.2396 81.4318 51.3792 81.6065 51.5552L86.4537 56.4161C86.8036 56.7677 87 57.2434 87 57.7392C87 58.235 86.8036 58.7107 86.4537 59.0623L82.1513 63.379H67.1212V67.1326C67.1212 67.6303 66.9233 68.1077 66.571 68.4597C66.2186 68.8116 65.7408 69.0094 65.2425 69.0094C64.7442 69.0094 64.2663 68.8116 63.914 68.4597C63.5617 68.1077 63.3637 67.6303 63.3637 67.1326V61.5022C63.3637 60.5067 63.7596 59.5519 64.4643 58.848C65.1689 58.1441 66.1247 57.7486 67.1212 57.7486ZM55.8487 67.1326V74.6398L51.5463 78.9377C51.1964 79.2893 51 79.765 51 80.2608C51 80.7566 51.1964 81.2323 51.5463 81.5839L56.3935 86.4448C56.5682 86.6208 56.776 86.7604 57.0049 86.8557C57.2339 86.9509 57.4794 87 57.7274 87C57.9755 87 58.221 86.9509 58.45 86.8557C58.6789 86.7604 58.8867 86.6208 59.0614 86.4448L67.1212 78.3934H74.6363C75.1346 78.3934 75.6124 78.1956 75.9648 77.8437C76.3171 77.4917 76.515 77.0143 76.515 76.5166V74.6398H78.3938C78.8921 74.6398 79.3699 74.442 79.7223 74.0901C80.0746 73.7381 80.2726 73.2607 80.2726 72.763V70.8862H82.1513C82.6496 70.8862 83.1275 70.6884 83.4798 70.3365C83.8321 69.9845 84.0301 69.5071 84.0301 69.0094V67.1326H70.8788V69.0094C70.8788 70.0049 70.4829 70.9596 69.7782 71.6636C69.0735 72.3675 68.1178 72.763 67.1212 72.763H63.3637C62.3672 72.763 61.4114 72.3675 60.7068 71.6636C60.0021 70.9596 59.6062 70.0049 59.6062 69.0094V63.379L55.8487 67.1326Z" fill="white"/>
<defs>
<filter id="filter0_d_58_1343" x="0" y="0" width="138" height="138" filterUnits="userSpaceOnUse" color-interpolation-filters="sRGB">
<feFlood flood-opacity="0" result="BackgroundImageFix"/>
<feColorMatrix in="SourceAlpha" type="matrix" values="0 0 0 0 0 0 0 0 0 0 0 0 0 0 0 0 0 0 127 0" result="hardAlpha"/>
<feOffset/>
<feGaussianBlur stdDeviation="17"/>
<feComposite in2="hardAlpha" operator="out"/>
<feColorMatrix type="matrix" values="0 0 0 0 0.0666667 0 0 0 0 0.768627 0 0 0 0 0.831373 0 0 0 0.2 0"/>
<feBlend mode="normal" in2="BackgroundImageFix" result="effect1_dropShadow_58_1343"/>
<feBlend mode="normal" in="SourceGraphic" in2="effect1_dropShadow_58_1343" result="shape"/>
</filter>
</defs>
</svg>
