<svg width="21" height="24" viewBox="0 0 21 24" fill="none" xmlns="http://www.w3.org/2000/svg">
<path d="M0.384563 9.41724L9.57206 0.378078C9.81819 0.135995 10.152 0 10.5 0C10.848 0 11.1818 0.135995 11.4279 0.378078L20.6154 9.41724C20.8616 9.65935 20.9999 9.98775 21 10.3302V22.7087C21 23.0512 20.8617 23.3796 20.6156 23.6218C20.3694 23.864 20.0356 24 19.6875 24H13.125V14.9608H7.875V24H1.3125C0.964403 24 0.630564 23.864 0.384423 23.6218C0.138281 23.3796 0 23.0512 0 22.7087V10.3302C7.43366e-05 9.98775 0.138404 9.65935 0.384563 9.41724Z" fill="#C4C4C4"/>
</svg>
